<?xml version="1.0" encoding="UTF-8"?>
<!-- Generator: Adobe Illustrator 23.0.0, SVG Export Plug-In . SVG Version: 6.00 Build 0)  -->
<svg xmlns="http://www.w3.org/2000/svg" xmlns:xlink="http://www.w3.org/1999/xlink" id="Layer_1" x="0px" y="0px" viewBox="0 0 499 499" style="enable-background:new 0 0 499 499;" xml:space="preserve">
<style type="text/css">
	.st0{fill:#D75F20;}
</style>
<path class="st0" d="M147.4,0C65.8,0,0,65.8,0,147.4v204.1C0,433.2,65.8,499,147.4,499h204.1c81.7,0,147.4-65.8,147.4-147.4V147.4  C499,65.8,433.2,0,351.6,0H147.4z M385.6,90.7c12.5,0,22.7,10.2,22.7,22.7s-10.2,22.7-22.7,22.7s-22.7-10.2-22.7-22.7  S373.1,90.7,385.6,90.7z M249.5,124.8c69.2,0,124.8,55.6,124.8,124.8s-55.6,124.8-124.8,124.8s-124.8-55.6-124.8-124.8  S180.3,124.8,249.5,124.8z M249.5,147.4c-56.7,0-102.1,45.4-102.1,102.1s45.4,102.1,102.1,102.1s102.1-45.4,102.1-102.1  S306.2,147.4,249.5,147.4z"></path>
</svg>
