<?xml version="1.0" encoding="UTF-8"?>
<svg xmlns="http://www.w3.org/2000/svg" xmlns:xlink="http://www.w3.org/1999/xlink" width="83px" height="67px" viewBox="0 0 83 67">
  <!-- Generator: Sketch 50.2 (55047) - http://www.bohemiancoding.com/sketch -->
  <title>“”</title>
  <desc>Created with Sketch.</desc>
  <defs></defs>
  <g id="Page-1" stroke="none" stroke-width="1" fill="none" fill-rule="evenodd">
    <g id="D-Events-&amp;-Programs-/-Seeking-God-Together" transform="translate(-426.000000, -8848.000000)" fill="#F2F2F2">
      <path d="M445.876316,8915 C429.713158,8915 426,8900.64286 426,8891.07143 C426,8869.10065 443.036842,8853.87338 456.797368,8848 L458.107895,8850.61039 C437.576316,8860.18182 424.252632,8884.11039 446.531579,8884.11039 C454.394737,8884.11039 460.947368,8889.76623 460.947368,8899.99026 C460.947368,8907.82143 453.739474,8915 445.876316,8915 Z M493.928947,8915 C477.765789,8915 474.052632,8900.64286 474.052632,8891.07143 C474.052632,8869.10065 491.089474,8853.87338 504.85,8848 L506.160526,8850.61039 C485.628947,8860.18182 472.305263,8884.11039 494.584211,8884.11039 C502.447368,8884.11039 509,8889.76623 509,8899.99026 C509,8907.82143 501.792105,8915 493.928947,8915 Z" id="“”"></path>
    </g>
  </g>
</svg>
